#N canvas 679 170 674 414 10;
#X declare -lib mrpeach;
#X obj 106 30 import mrpeach;
#X obj 152 232 udpsend;
#X msg 80 91 connect localhost 9109;
#X msg 97 121 disconnect;
#X floatatom 249 44 5 0 101 0 - - -;
#X obj 249 167 packOSC;
#X obj 249 95 / 100;
#X floatatom 339 43 5 0 101 0 - - -;
#X obj 339 95 / 100;
#X msg 249 116 send /red \$1;
#X msg 339 117 send /green \$1;
#X floatatom 446 54 5 0 101 0 - - -;
#X obj 446 95 / 100;
#X msg 446 117 send /blue \$1;
#X connect 2 0 1 0;
#X connect 3 0 1 0;
#X connect 4 0 6 0;
#X connect 5 0 1 0;
#X connect 6 0 9 0;
#X connect 7 0 8 0;
#X connect 8 0 10 0;
#X connect 9 0 5 0;
#X connect 10 0 5 0;
#X connect 11 0 12 0;
#X connect 12 0 13 0;
#X connect 13 0 5 0;
